# xmcd CD database file
#
# Track frame offsets:
#	150
#	24321
#	45677
#	72555
#	91899
#	111628
#	123397
#	136454
#	165859
#	195543
#	218316
#	255319
#	270798
#	289531
#	307721
#	319540
#	341770
#
# Disc length: 4773 seconds
#
# Revision: 1
# Processed by: cddbd v1.5.2PL0 Copyright (c) Steve Scherf et al.
# Submitted via: CDex 1.81
#
DISCID=e012a311
DTITLE=BestJazz100-PremiumStandards - Best Jazz 100 Premium Standards 5 - Relax Standards
DYEAR=2000
DGENRE=Jazz
TTITLE0=The Girl From Ipanema
TTITLE1=O Grande Amor
TTITLE2=Dark Eyes
TTITLE3=Prelude In E Minor
TTITLE4=Harlem Nocturne
TTITLE5=Frenesi
TTITLE6=Corcovado
TTITLE7=Besame Mucho
TTITLE8=How Insensitive
TTITLE9=Brazil
TTITLE10=Wave
TTITLE11=Perfidia
TTITLE12=Greensleeves
TTITLE13=Favela
TTITLE14=Sway (Quien Sera)
TTITLE15=Taboo
TTITLE16=Danny Boy
EXTD=YEAR: 2000
EXTT0=
EXTT1=
EXTT2=
EXTT3=
EXTT4=
EXTT5=
EXTT6=
EXTT7=
EXTT8=
EXTT9=
EXTT10=
EXTT11=
EXTT12=
EXTT13=
EXTT14=
EXTT15=
EXTT16=
PLAYORDER=
